<?xml version="1.0" encoding="utf-8"?>
<!-- Generator: Adobe Illustrator 23.0.1, SVG Export Plug-In . SVG Version: 6.00 Build 0)  -->
<svg version="1.1" id="Capa_1" xmlns="http://www.w3.org/2000/svg" xmlns:xlink="http://www.w3.org/1999/xlink" x="0px" y="0px"
	 viewBox="0 0 512 384" style="enable-background:new 0 0 512 384;" xml:space="preserve">
<style type="text/css">
	.st0{fill:#2C303A;}
</style>
<path class="st0" d="M464,0H175.2c-14.5,0-28,6.4-37.2,17.6L3.6,181.9c-4.8,5.9-4.8,14.4,0,20.2L138,366.4
	c9.2,11.2,22.7,17.6,37.2,17.6H464c26.5,0,48-21.5,48-48V48C512,21.5,490.5,0,464,0L464,0z M390.6,249.4l-45.3,45.3L288,237.3
	l-57.4,57.4l-45.3-45.3l57.4-57.4l-57.4-57.4l45.3-45.3l57.4,57.4l57.4-57.4l45.3,45.3L333.3,192C333.2,192,390.6,249.4,390.6,249.4
	z"/>
</svg>
