<?xml version="1.0" encoding="iso-8859-1"?>
<!-- Generator: Adobe Illustrator 19.0.0, SVG Export Plug-In . SVG Version: 6.00 Build 0)  -->
<svg version="1.1" id="Capa_1" xmlns="http://www.w3.org/2000/svg" xmlns:xlink="http://www.w3.org/1999/xlink" x="0px" y="0px"
	 viewBox="0 0 464 464" style="enable-background:new 0 0 464 464;" xml:space="preserve">
<circle style="fill:#EA7E73;" cx="40" cy="40" r="40"/>
<circle style="fill:#EFC062;" cx="232" cy="40" r="40"/>
<circle style="fill:#61CCCC;" cx="424" cy="40" r="40"/>
<circle style="fill:#EFC062;" cx="232" cy="400" r="64"/>
<g>
	<path style="fill:#2A60A0;" d="M152,144h-16v-24H40c-4.416,0-8-3.584-8-8V80h16v24h96c4.416,0,8,3.584,8,8V144z"/>
	<path style="fill:#2A60A0;" d="M328,144h-16v-32c0-4.416,3.584-8,8-8h96V80h16v32c0,4.416-3.584,8-8,8h-96V144z"/>
</g>
<polygon style="fill:#EA7E73;" points="368,144 96,144 96,192 208,255.64 208,312 256,280 256,255.64 368,192 "/>
<g>
	<rect x="224" y="80" style="fill:#2A60A0;" width="16" height="64"/>
	<path style="fill:#2A60A0;" d="M240,392h-16c-4.408,0-8-3.592-8-8s3.592-8,8-8h16c4.408,0,8,3.592,8,8h16c0-13.232-10.768-24-24-24
		v-24h-16v24c-13.232,0-24,10.768-24,24s10.768,24,24,24h16c4.408,0,8,3.592,8,8s-3.592,8-8,8h-16c-4.408,0-8-3.592-8-8h-16
		c0,13.232,10.768,24,24,24v24h16v-24c13.232,0,24-10.768,24-24S253.232,392,240,392z"/>
</g>
<g>
</g>
<g>
</g>
<g>
</g>
<g>
</g>
<g>
</g>
<g>
</g>
<g>
</g>
<g>
</g>
<g>
</g>
<g>
</g>
<g>
</g>
<g>
</g>
<g>
</g>
<g>
</g>
<g>
</g>
</svg>
