<svg id="Capa_1" enable-background="new 0 0 512 512" height="512" viewBox="0 0 512 512" width="512" xmlns="http://www.w3.org/2000/svg"><g><path d="m416.919 512h-321.838c-16.098 0-29.148-13.05-29.148-29.148v-453.704c0-16.098 13.05-29.148 29.148-29.148h321.839c16.098 0 29.148 13.05 29.148 29.148v453.704c-.001 16.098-13.051 29.148-29.149 29.148z" fill="#ffe8d2"/><path d="m416.919 0h-26.878v132.608c0 176.034-142.704 318.738-318.738 318.738h-5.37v31.506c0 16.098 13.05 29.148 29.148 29.148h321.839c16.098 0 29.148-13.05 29.148-29.148v-453.704c-.001-16.098-13.051-29.148-29.149-29.148z" fill="#f7d4ad"/><g><path d="m406.275 229.65h-269.795c-4.283 0-7.755-3.472-7.755-7.755s3.472-7.755 7.755-7.755h269.795c4.283 0 7.755 3.472 7.755 7.755s-3.472 7.755-7.755 7.755z" fill="#e2a876"/></g><g><path d="m406.275 271.31h-269.795c-4.283 0-7.755-3.472-7.755-7.755s3.472-7.755 7.755-7.755h269.795c4.283 0 7.755 3.472 7.755 7.755 0 4.284-3.472 7.755-7.755 7.755z" fill="#e2a876"/></g><g><path d="m256 312.972h-119.52c-4.283 0-7.755-3.472-7.755-7.755s3.472-7.755 7.755-7.755h119.52c4.283 0 7.755 3.472 7.755 7.755s-3.472 7.755-7.755 7.755z" fill="#e2a876"/></g><g><path d="m256 354.632h-119.52c-4.283 0-7.755-3.472-7.755-7.755s3.472-7.755 7.755-7.755h119.52c4.283 0 7.755 3.472 7.755 7.755s-3.472 7.755-7.755 7.755z" fill="#e2a876"/></g><g><path d="m406.275 146.328h-269.795c-4.283 0-7.755-3.472-7.755-7.755s3.472-7.755 7.755-7.755h269.795c4.283 0 7.755 3.472 7.755 7.755s-3.472 7.755-7.755 7.755z" fill="#e2a876"/></g><g><path d="m406.275 187.989h-269.795c-4.283 0-7.755-3.472-7.755-7.755s3.472-7.755 7.755-7.755h269.795c4.283 0 7.755 3.472 7.755 7.755s-3.472 7.755-7.755 7.755z" fill="#e2a876"/></g><g><circle cx="107.953" cy="221.895" fill="#e2a876" r="7.755"/></g><g><circle cx="107.953" cy="138.573" fill="#e2a876" r="7.755"/></g><g><circle cx="107.953" cy="180.234" fill="#e2a876" r="7.755"/></g><g><circle cx="107.953" cy="263.555" fill="#e2a876" r="7.755"/></g><g><circle cx="107.953" cy="305.216" fill="#e2a876" r="7.755"/></g><g><circle cx="107.953" cy="346.877" fill="#e2a876" r="7.755"/></g><g><path d="m256 396.292h-119.52c-4.283 0-7.755-3.472-7.755-7.755s3.472-7.755 7.755-7.755h119.52c4.283 0 7.755 3.472 7.755 7.755 0 4.284-3.472 7.755-7.755 7.755z" fill="#e2a876"/></g><g><circle cx="107.953" cy="388.537" fill="#e2a876" r="7.755"/></g><g><path d="m256 437.953h-119.52c-4.283 0-7.755-3.472-7.755-7.755s3.472-7.755 7.755-7.755h119.52c4.283 0 7.755 3.472 7.755 7.755s-3.472 7.755-7.755 7.755z" fill="#e2a876"/></g><g><path d="m151.298 479.614h-43.346c-4.283 0-7.755-3.472-7.755-7.755s3.472-7.755 7.755-7.755h43.346c4.283 0 7.755 3.472 7.755 7.755s-3.471 7.755-7.755 7.755z" fill="#6e4848"/></g><g><path d="m398.38 479.614h-43.347c-4.283 0-7.755-3.472-7.755-7.755s3.472-7.755 7.755-7.755h43.347c4.283 0 7.755 3.472 7.755 7.755s-3.471 7.755-7.755 7.755z" fill="#6e4848"/></g><g><circle cx="107.953" cy="430.198" fill="#e2a876" r="7.755"/></g><g><g fill="#6e4848"><path d="m219.732 59.71h-13.359v-12.25h15.182c4.284 0 7.755-3.472 7.755-7.755s-3.472-7.755-7.755-7.755h-22.937c-4.283 0-7.755 3.472-7.755 7.755v56.592c0 4.283 3.472 7.755 7.755 7.755 4.284 0 7.755-3.472 7.755-7.755v-21.077h13.359c4.284 0 7.755-3.472 7.755-7.755s-3.471-7.755-7.755-7.755z"/><path d="m278.153 59.71h-13.36v-12.25h15.182c4.284 0 7.755-3.472 7.755-7.755s-3.472-7.755-7.755-7.755h-22.937c-4.283 0-7.755 3.472-7.755 7.755v56.592c0 4.283 3.472 7.755 7.755 7.755 4.284 0 7.755-3.472 7.755-7.755v-21.077h13.36c4.283 0 7.755-3.472 7.755-7.755s-3.471-7.755-7.755-7.755z"/><path d="m335.053 87.955h-16.047v-12.735h14.292c4.284 0 7.755-3.472 7.755-7.755s-3.472-7.755-7.755-7.755h-14.292v-12.735h16.047c4.283 0 7.755-3.472 7.755-7.755s-3.472-7.755-7.755-7.755h-23.803c-4.283 0-7.755 3.472-7.755 7.755v56.49c0 4.283 3.472 7.755 7.755 7.755h23.803c4.283 0 7.755-3.472 7.755-7.755s-3.472-7.755-7.755-7.755z"/><path d="m395.441 75.111c9.174-3.057 15.783-11.463 15.783-21.334 0-12.446-10.502-22.571-23.41-22.571h-15.15c-.003 0-.006 0-.009 0s-.006 0-.009 0c-4.283 0-7.755 3.472-7.755 7.755v57.01c0 4.283 3.472 7.755 7.755 7.755 4.284 0 7.755-3.472 7.755-7.755v-14.472l17.246 19.595c1.533 1.742 3.674 2.632 5.825 2.632 1.819 0 3.647-.637 5.12-1.934 3.215-2.829 3.527-7.73.698-10.945zm-7.626-28.396c4.282 0 7.899 3.234 7.899 7.061 0 3.828-3.617 7.061-7.899 7.061-1.729 0-4.574.011-7.332.024-.013-2.679-.024-5.423-.024-7.085 0-1.42-.007-4.25-.014-7.061z"/></g><g><path d="m135.104 104.26c-19.994 0-36.26-16.266-36.26-36.26s16.266-36.26 36.26-36.26 36.26 16.266 36.26 36.26-16.266 36.26-36.26 36.26zm0-57.009c-11.442 0-20.75 9.308-20.75 20.75s9.308 20.75 20.75 20.75 20.75-9.308 20.75-20.75-9.308-20.75-20.75-20.75z" fill="#6e4848"/></g></g><path d="m376.706 347.18c4.284 0 7.755-3.472 7.755-7.755v-1.485c0-14.036-11.419-25.455-25.456-25.455h-3.036v-6.206c0-4.283-3.472-7.755-7.755-7.755s-7.755 3.472-7.755 7.755v6.206h-3.038c-14.036 0-25.455 11.419-25.455 25.455v13.251c0 14.036 11.419 25.455 25.455 25.455h3.038v33.143h-3.038c-5.484 0-9.945-4.461-9.945-9.945 0-4.283-3.472-7.755-7.755-7.755-4.284 0-7.755 3.472-7.755 7.755 0 14.036 11.419 25.455 25.455 25.455h3.038v3.837c0 4.284 3.472 7.755 7.755 7.755 4.284 0 7.755-3.472 7.755-7.755v-3.837h3.036c14.036 0 25.456-11.42 25.456-25.455v-13.252c0-14.036-11.419-25.456-25.456-25.456h-3.036v-33.142h3.036c5.484 0 9.945 4.461 9.945 9.945v1.485c.001 4.284 3.473 7.756 7.756 7.756zm-17.7 29.466c5.484 0 9.945 4.461 9.945 9.945v13.252c0 5.484-4.461 9.945-9.945 9.945h-3.036v-33.143h3.036zm-18.547-15.51h-3.038c-5.484 0-9.945-4.461-9.945-9.945v-13.251c0-5.484 4.461-9.945 9.945-9.945h3.038z" fill="#ff8b59"/></g></svg>