<?xml version="1.0" encoding="utf-8"?>
<!-- Generator: Adobe Illustrator 23.0.1, SVG Export Plug-In . SVG Version: 6.00 Build 0)  -->
<svg version="1.1" id="Layer_1" xmlns="http://www.w3.org/2000/svg" xmlns:xlink="http://www.w3.org/1999/xlink" x="0px" y="0px"
	 viewBox="0 0 512 234.7" style="enable-background:new 0 0 512 234.7;" xml:space="preserve">
<style type="text/css">
	.st0{fill:#00BCD4;}
	.st1{fill:#FAFAFA;}
	.st2{fill:#607D8B;}
</style>
<path class="st0" d="M-257.3-322.7h-277.3c-64.7,0-117.3,52.6-117.3,117.3C-652-140.6-599.3-88-534.7-88h277.3
	c64.7,0,117.3-52.6,117.3-117.3C-140-270-192.7-322.7-257.3-322.7z"/>
<path class="st1" d="M-205.3-205.3c0,29.5-23.9,53.3-53.3,53.3c-29.5,0-53.3-23.9-53.3-53.3c0-29.5,23.9-53.3,53.3-53.3
	C-229.2-258.7-205.3-234.8-205.3-205.3z"/>
<path class="st2" d="M117.3,234.7h277.3c64.7,0,117.3-52.6,117.3-117.3C512,52.6,459.3,0,394.7,0H117.3C52.7,0,0,52.6,0,117.3
	C0,182,52.7,234.7,117.3,234.7z"/>
<path class="st1" d="M170.7,117.3c0,29.5-23.9,53.3-53.3,53.3c-29.5,0-53.3-23.9-53.3-53.3C64,87.9,87.9,64,117.3,64
	C146.8,64,170.7,87.9,170.7,117.3z"/>
</svg>
