<?xml version="1.0" encoding="utf-8"?>
<!-- Generator: Adobe Illustrator 23.0.1, SVG Export Plug-In . SVG Version: 6.00 Build 0)  -->
<svg version="1.1" id="Layer_1" xmlns="http://www.w3.org/2000/svg" xmlns:xlink="http://www.w3.org/1999/xlink" x="0px" y="0px"
	 viewBox="0 0 512 234.7" style="enable-background:new 0 0 512 234.7;" xml:space="preserve">
<style type="text/css">
	.st0{fill:#00BCD4;}
	.st1{fill:#FAFAFA;}
	.st2{fill:#607D8B;}
</style>
<path class="st0" d="M394.7,0H117.3C52.7,0,0,52.6,0,117.3C0,182,52.7,234.7,117.3,234.7h277.3c64.7,0,117.3-52.6,117.3-117.3
	C512,52.6,459.3,0,394.7,0z"/>
<path class="st1" d="M446.7,117.3c0,29.5-23.9,53.3-53.3,53.3c-29.5,0-53.3-23.9-53.3-53.3c0-29.5,23.9-53.3,53.3-53.3
	C422.8,64,446.7,87.9,446.7,117.3z"/>
<path class="st2" d="M8,652h277.3c64.7,0,117.3-52.6,117.3-117.3c0-64.7-52.7-117.3-117.3-117.3H8c-64.7,0-117.3,52.6-117.3,117.3
	C-109.3,599.4-56.7,652,8,652z"/>
<path class="st1" d="M61.3,534.7C61.3,564.1,37.5,588,8,588c-29.5,0-53.3-23.9-53.3-53.3c0-29.5,23.9-53.3,53.3-53.3
	C37.5,481.3,61.3,505.2,61.3,534.7z"/>
</svg>
